<svg xmlns="http://www.w3.org/2000/svg" viewBox="0 0 118.65 118.65"><defs><style>.cls-1{opacity:0.3;}.cls-2{fill:#7a0519;}.cls-3{fill:#0f6fa5;}.cls-4{fill:#fff;}</style></defs><title>Asset 2</title><g id="Layer_2" data-name="Layer 2"><g id="Layer_1-2" data-name="Layer 1"><g class="cls-1"><circle class="cls-2" cx="59.33" cy="59.33" r="59.33"/></g><circle class="cls-3" cx="59.33" cy="59.33" r="59.33"/><path class="cls-4" d="M71.78,35.89a7.07,7.07,0,0,1-.65-.57,1.4,1.4,0,0,1-.29-1.52,1.37,1.37,0,0,1,1.31-.94h2V31.59H63.88v1.7c.69,0,1.38,0,2.07,0a2.67,2.67,0,0,1,1.14.35A1.24,1.24,0,0,1,67.61,35a1.22,1.22,0,0,1-1,1.12c-1.55.07-3.11.07-4.67,0-.65,0-1-.64-1.07-1.39,0-1.6,0-3.19,0-4.79,0-1,.61-1.49,1.71-1.5,2.58,0,5.16,0,7.75,0,1.72,0,3.44,0,5.16,0,1.22,0,1.75.51,1.78,1.74s0,2.62,0,3.92c0,1.49-.41,1.91-1.91,2l-.45.07v2c.66.23,16.19.3,17.53.06,0-.31,0-.65,0-1V30.35a4.22,4.22,0,0,1,.09-.94,1.45,1.45,0,0,1,2.81,0,3.79,3.79,0,0,1,.1.95V53.42a5,5,0,0,1,0,.67A1.49,1.49,0,0,1,93.9,55.5,1.47,1.47,0,0,1,92.47,54c0-1,0-2,0-3V49.92c-.44,0-.77-.08-1.11-.08-1.72,0-3.45,0-5.17,0a6.58,6.58,0,0,1-1.33-.11,1.36,1.36,0,0,1-1.06-1.5A1.4,1.4,0,0,1,85,46.9a4.91,4.91,0,0,1,.77,0h6.65v-5c-.65-.24-16.23-.31-17.51-.06v2.43c6.94,3.6,10.6,9.14,9.28,17.1-1,6.23-4.9,10.4-11,12.09-5.72,1.58-10.81.11-15.2-4l.9-3.56.72.76a12.61,12.61,0,0,0,14.68,3.11A12.38,12.38,0,0,0,79,51a12.57,12.57,0,0,0-5.7-4.18c-1.25-.46-1.47-.78-1.47-2.12Z"/><path class="cls-4" d="M42.75,78.9A6.55,6.55,0,0,0,41,81.43,25.72,25.72,0,0,0,39.57,87c-.26,1.25-.57,2.49-.91,3.72A4.19,4.19,0,0,1,38,92a1.81,1.81,0,0,1-2.9.28,10.93,10.93,0,0,1-1.81-2.55A12.14,12.14,0,0,1,32.17,84c0-1.69.12-3.38.17-5.07,0-.82,0-1.65,0-2.48a5.23,5.23,0,0,0-.74-2.53,21.6,21.6,0,0,1-3-8.21,10.75,10.75,0,0,1,.6-5.83,7.61,7.61,0,0,1,7.38-4.6,12.39,12.39,0,0,1,2.3.61c1.12.37,2.22.8,3.34,1.18a3.64,3.64,0,0,0,2.35,0c1.23-.41,2.51-.74,3.71-1.24,5-2.07,10.27,2,10.29,7.36a20.55,20.55,0,0,1-1.85,8.14,12.69,12.69,0,0,1-1,2.06,8.91,8.91,0,0,0-1.17,5.41c0,2.45.12,4.9,0,7.35a8.41,8.41,0,0,1-2.17,5.4,6,6,0,0,1-1.14,1,1.37,1.37,0,0,1-1.83-.2,4.67,4.67,0,0,1-1.33-2.5c-.43-1.86-.76-3.75-1.28-5.58a30.37,30.37,0,0,0-1.57-4.1A2.16,2.16,0,0,0,42.75,78.9Zm-6.37,9.89c.11-.53.21-1.05.31-1.58a30.2,30.2,0,0,1,2.39-7.83,17.08,17.08,0,0,1,1.17-1.86,4.28,4.28,0,0,1,6.65,0,9.06,9.06,0,0,1,1.29,2.11c.71,2,1.33,4,1.91,6,.31,1.07.45,2.18.69,3.39A9.34,9.34,0,0,0,52,84.58c.05-2.55,0-5.1.06-7.64a9.33,9.33,0,0,1,1.2-4.84,26.39,26.39,0,0,0,2.06-4.82,9.35,9.35,0,0,0,.34-5.37c-.65-2.61-3.48-4.43-5.71-3.76a30.3,30.3,0,0,0-3.26,1.07,7.93,7.93,0,0,1-6.05.14,30.22,30.22,0,0,0-3.46-1.1c-2.93-.7-4.83.48-5.62,3.39a10.31,10.31,0,0,0-.06,5.29,23.43,23.43,0,0,0,2.68,6,4.21,4.21,0,0,1,.64,1.77c.11,2.16.09,4.33.14,6.49,0,1.33,0,2.68.13,4A6.79,6.79,0,0,0,36.38,88.79Z"/><path class="cls-4" d="M41.2,44.76l-15.07,2V42h3l.2,1.16,8.73-1.24V38.82l-8.73-1.28-.2,1.35h-3V34c5.07.56,10.06,1.34,15,2A46.06,46.06,0,0,1,41.2,44.76Z"/><path class="cls-4" d="M45.27,52.34c0,.61,0,1.25,0,1.88A1.67,1.67,0,0,1,43.47,56c-1,0-1.66-.69-1.7-1.88,0-.63,0-1.27,0-1.83-2.91-1.68-4.05-3.53-3.49-5.69l2.93-.41c0,.43,0,.74.08,1a2.11,2.11,0,0,0,4.22-.06c0-2.51,0-5,0-7.55,0-1.27,0-2.55,0-3.82S46.09,34,47,34a1.58,1.58,0,0,1,1.67,1.78c0,2.65,0,5.29,0,7.94,0,1.11,0,2.23,0,3.34a5.26,5.26,0,0,1-2.87,4.84l-.33.2A2,2,0,0,0,45.27,52.34Z"/><path class="cls-4" d="M56.48,57l-2.56-1.68a15.66,15.66,0,0,1,9.33-11.13c0-.33,0-.67,0-1,0-1.11,0-2.23,0-3.34a1.45,1.45,0,1,1,2.9,0c0,1.78,0,3.57,0,5.35a1.7,1.7,0,0,1-1.36,1.63,12.3,12.3,0,0,0-8,9.23c0,.25-.11.5-.17.74C56.64,56.83,56.58,56.87,56.48,57Z"/><path class="cls-4" d="M73.81,59.27a8.05,8.05,0,0,0-4,1,10.29,10.29,0,0,1-5.59,1.33,9.68,9.68,0,0,1-4.36-1.28,1.52,1.52,0,0,1-.66-2,1.47,1.47,0,0,1,2.12-.62A6.47,6.47,0,0,0,66,58.5a10.71,10.71,0,0,0,2.74-1,9.59,9.59,0,0,1,9.58,0,1.51,1.51,0,0,1,.55,2.4,1.37,1.37,0,0,1-2,.27A6.24,6.24,0,0,0,73.81,59.27Z"/></g></g></svg>