<svg xmlns="http://www.w3.org/2000/svg" viewBox="0 0 118.65 118.65"><defs><style>.cls-1{opacity:0.3;}.cls-2{fill:#7a0519;}.cls-3{fill:#0f6fa5;}.cls-4{fill:#fff;}</style></defs><title>Asset 7</title><g id="Layer_2" data-name="Layer 2"><g id="Layer_1-2" data-name="Layer 1"><g class="cls-1"><circle class="cls-2" cx="59.33" cy="59.33" r="59.33"/></g><circle class="cls-3" cx="59.33" cy="59.33" r="59.33"/><path class="cls-4" d="M59.64,82.12H37a5.63,5.63,0,0,1-5.93-6q0-14.07,0-28.15c0-1.87,0-3.75,0-5.62a5.53,5.53,0,0,1,5-5.53c.41,0,.84-.06,1.26-.06h4.93c0-.48,0-.93,0-1.39a4.73,4.73,0,0,1,.14-1.13,1.77,1.77,0,0,1,2.06-1.21A1.75,1.75,0,0,1,46,34.83c0,1.93,0,3.85,0,5.78a1.83,1.83,0,0,1-3.65.21c0-.38-.19-.44-.52-.44H37.31a5.1,5.1,0,0,0-.87.07,1.82,1.82,0,0,0-1.59,1.79c-.05,1.25,0,2.51,0,3.76,0,.09.14.2.24.26s.18,0,.27,0h41c.05-.07.08-.09.08-.11,0-1.33,0-2.67,0-4a1.78,1.78,0,0,0-1.78-1.74c-.79,0-1.58,0-2.37,0h-.49V36.87c1.11,0,2.18,0,3.26,0a5.27,5.27,0,0,1,4,2.2,5.73,5.73,0,0,1,1.11,3.56V60.57c0,.12,0,.23,0,.35-.8-.22-1.57-.44-2.35-.63a6.23,6.23,0,0,0-1-.18c-.26,0-.32-.15-.31-.38V56.24c0-2.16,0-4.33,0-6.49,0-.35-.1-.44-.45-.44H35.25c-.32,0-.43.08-.43.42q0,13.22,0,26.44a2,2,0,0,0,2.23,2.21H58.24c.34,0,.49.06.57.44C59.05,79.9,59.35,81,59.64,82.12Z"/><path class="cls-4" d="M87.51,71.39a13.94,13.94,0,0,1-24,13.54A14,14,0,0,1,82.82,65c-.72.52-1.42,1-2.14,1.54-.08.05-.27,0-.38-.07a11.22,11.22,0,0,0-5.94-1.64A11.33,11.33,0,1,0,85.53,74a.71.71,0,0,1,.09-.5c.58-.69,1.18-1.36,1.77-2A.54.54,0,0,1,87.51,71.39Z"/><path class="cls-4" d="M74.23,80.93A2.63,2.63,0,0,1,72,79.82a32.15,32.15,0,0,1-3.8-6.64A8.81,8.81,0,0,1,67.82,72a1,1,0,0,1,.28-1.06,1,1,0,0,1,1.11-.11,9.75,9.75,0,0,1,2.71,1.77c.67.56,1.35,1.1,2,1.68.3.27.49.24.79,0,2.56-2,5.11-4,7.7-6A28.83,28.83,0,0,1,87.3,65a2.22,2.22,0,0,1,1-.21c.49,0,.67.33.52.8a3.37,3.37,0,0,1-.45,1c-.75,1-1.51,1.89-2.3,2.81Q81.4,74.88,76.26,80A2.92,2.92,0,0,1,74.23,80.93Z"/><path class="cls-4" d="M65.22,36.8c0-.67,0-1.29,0-1.9a1.83,1.83,0,0,1,3.66-.12q.08,3,0,6A1.78,1.78,0,0,1,67,42.43a1.8,1.8,0,0,1-1.79-1.7c0-.37-.22-.35-.47-.35H49.69c-.57,0-.57,0-.57-.58,0-.84,0-1.67,0-2.5,0-.38.1-.49.49-.49l15.07,0Z"/><path class="cls-4" d="M55.63,62.61H52.78a1.28,1.28,0,0,1-1.39-1.41V57.52a1.28,1.28,0,0,1,1.38-1.38h5.7a1.29,1.29,0,0,1,1.39,1.41v3.68a1.28,1.28,0,0,1-1.38,1.38Z"/><path class="cls-4" d="M43.12,62.61H40.31a1.29,1.29,0,0,1-1.41-1.36c0-1.25,0-2.5,0-3.76a1.3,1.3,0,0,1,1.42-1.35h5.62a1.27,1.27,0,0,1,1.42,1.44c0,1.23,0,2.45,0,3.68A1.25,1.25,0,0,1,46,62.61Z"/><path class="cls-4" d="M43.13,73.79H40.32a1.28,1.28,0,0,1-1.42-1.34c0-1.25,0-2.5,0-3.76a1.27,1.27,0,0,1,1.42-1.34H46a1.25,1.25,0,0,1,1.4,1.42v3.68A1.23,1.23,0,0,1,46,73.79Z"/><path class="cls-4" d="M55.63,67.35h2.81a1.29,1.29,0,0,1,1.43,1.41,4.74,4.74,0,0,1-.27,1.53c-.33,1-.59,2.1-.84,3.16-.06.26-.15.35-.41.34H52.66a1.23,1.23,0,0,1-1.27-1.24q0-2,0-4a1.24,1.24,0,0,1,1.27-1.24Z"/><path class="cls-4" d="M68.12,56.14h2.81a1.28,1.28,0,0,1,1.41,1.32c0,.8,0,1.6,0,2.41,0,.23-.11.32-.32.35a17.74,17.74,0,0,0-6.12,2.26,1.34,1.34,0,0,1-2-1.06c0-1.36,0-2.72,0-4.08a1.23,1.23,0,0,1,1.34-1.2Z"/></g></g></svg>