<svg xmlns="http://www.w3.org/2000/svg" viewBox="0 0 118.65 118.65"><defs><style>.cls-1{opacity:0.3;}.cls-2{fill:#7a0519;}.cls-3{fill:#0f6fa5;}.cls-4,.cls-5{fill:#fff;}.cls-5{font-size:12.99px;font-family:CircularStd-Black, Circular Std;font-weight:800;}</style></defs><title>Asset 3</title><g id="Layer_2" data-name="Layer 2"><g id="Layer_1-2" data-name="Layer 1"><g class="cls-1"><circle class="cls-2" cx="59.33" cy="59.33" r="59.33"/></g><circle class="cls-3" cx="59.33" cy="59.33" r="59.33"/><path class="cls-4" d="M39.33,42.91c0-1.41,0-2.75,0-4.09,0-1,0-1.91,0-2.86s.42-1.39,1.42-1.4c2.17,0,4.34,0,6.51,0H88.78c1.67,0,1.92.25,1.92,1.94V79.6c0,5.09-3.37,8.49-8.45,8.49q-22.86,0-45.74,0a5.31,5.31,0,0,1-5.33-3.5,11.42,11.42,0,0,1-.82-4.08c-.06-12,0-24,0-36,0-1.16.41-1.55,1.6-1.55h7.41Zm1,42.78H82.4a5.6,5.6,0,0,0,5.91-6q0-20.92,0-41.86V37H41.7V38.3q0,20.25,0,40.51C41.72,81.15,41.69,83.47,40.28,85.69ZM32.75,45.35c0,.33,0,.61,0,.89V72.06c0,2.83,0,5.66,0,8.49a6.4,6.4,0,0,0,1.14,4,2.54,2.54,0,0,0,4.25,0A4.73,4.73,0,0,0,39,82.88a12,12,0,0,0,.34-2.74q0-16.95,0-33.91c0-.29,0-.57,0-.88Z"/><path class="cls-4" d="M64.07,66.57H44.85V53.43H64.07Z"/><path class="cls-4" d="M84.47,82.23H45.84V78.61H84.47Z"/><path class="cls-4" d="M45.81,74v-3.6H84.49V74Z"/><path class="cls-4" d="M67.74,57.72V54.09H84.5v3.63Z"/><path class="cls-4" d="M84.5,62.27v3.59H67.75V62.27Z"/><text class="cls-5" transform="translate(45.65 49.47)">NEWS</text></g></g></svg>