<svg xmlns="http://www.w3.org/2000/svg" viewBox="0 0 118.65 118.65"><defs><style>.cls-1{opacity:0.3;}.cls-2{fill:#7a0519;}.cls-3{fill:#0f6fa5;}.cls-4{fill:#fff;}</style></defs><title>Asset 1</title><g id="Layer_2" data-name="Layer 2"><g id="Layer_1-2" data-name="Layer 1"><g class="cls-1"><circle class="cls-2" cx="59.33" cy="59.33" r="59.33"/></g><circle class="cls-3" cx="59.33" cy="59.33" r="59.33"/><path class="cls-4" d="M25.33,75.61c.1-1.06.2-2.13.29-3.19a73.07,73.07,0,0,1,1.59-10.7,7.13,7.13,0,0,1,5.1-5.55l2.59-.86c0,.23,0,.38,0,.53.08,1.29.16,2.59.26,3.88,0,.33.09.58-.3.79a4.81,4.81,0,0,0-2.57,5.05c.16,1.86.31,3.73.56,5.59a9.06,9.06,0,0,0,.73,2.48,2.53,2.53,0,0,0,3.2,1.27.85.85,0,0,0-.25-1.66c-1.29,0-1.68-.32-1.86-1.65-.25-1.78-.39-3.58-.56-5.38a7.67,7.67,0,0,1,0-2,3.17,3.17,0,0,1,6-.74c.84,2.12,1.59,4.28,2.29,6.45.39,1.21.14,1.61-1,2.2a.79.79,0,0,0-.44,1,.77.77,0,0,0,1,.57,2.65,2.65,0,0,0,2.32-3.27,32.33,32.33,0,0,0-1.09-3.81c-.33-1-.76-2.06-1.12-3.09a4.92,4.92,0,0,0-4.61-3.67c-.18,0-.48-.24-.48-.39-.09-1.4-.14-2.81-.15-4.22a.8.8,0,0,1,.45-.57c.81-.29,1.64-.5,2.52-.76a36.75,36.75,0,0,0,4.2,9c.27-1.52.57-2.82.72-4.15.05-.45-.29-.94-.48-1.49l1.73-1.46c.52.44,1,.85,1.52,1.3a.49.49,0,0,1,.11.45c-.6.92-.29,1.85-.12,2.79.14.78.29,1.57.47,2.56A33.4,33.4,0,0,0,52,54a18.41,18.41,0,0,1,1.81.57,1.23,1.23,0,0,1,.53.65,17.32,17.32,0,0,1,1.1,7.06,22.57,22.57,0,0,1-1.21,6.71.77.77,0,0,1-.75.63,2.29,2.29,0,0,0-1.94,2,2.35,2.35,0,0,0,4,2,2.23,2.23,0,0,0,.42-2.7,1.42,1.42,0,0,1-.09-1.34,22.92,22.92,0,0,0,.44-14,1.2,1.2,0,0,1,0-.28,17,17,0,0,1,6.2,2.64c1.14.91,1.49,2.25,2,3.54a1.89,1.89,0,0,1-.61,2.38,14.82,14.82,0,0,0-4.64,13.62c0,.22.05.45.08.75-.29,0-.56,0-.83,0q-15.4,0-30.81,0a2.15,2.15,0,0,1-2.3-1.3Z"/><path class="cls-4" d="M45.64,25.92c.92.19,1.84.34,2.74.57a11.88,11.88,0,0,1,4.78,2.44A8.23,8.23,0,0,1,56,36.43c-.08.9-.22,1.8-.34,2.71a1.27,1.27,0,0,1,1,1.75c-.29,1.34-.81,2.53-2.34,2.92-.2,0-.38.36-.48.59A17.39,17.39,0,0,1,51,49.13a7.44,7.44,0,0,1-4,2.55,5.81,5.81,0,0,1-5.2-1.48A14.64,14.64,0,0,1,38,44.61a1.32,1.32,0,0,0-1-.92c-1.3-.34-2.4-2.65-1.89-3.92.13-.3.57-.47.91-.72-.14-1.2-.36-2.53-.41-3.86a11.4,11.4,0,0,1,.28-2.85,4.48,4.48,0,0,1,2.66-3.19,1.45,1.45,0,0,0,.64-.7,3.49,3.49,0,0,1,2.18-1.94c.75-.25,1.54-.39,2.31-.59Z"/><path class="cls-4" d="M83.58,87c-1.34.44-1.65.32-2.64-1.07a13,13,0,0,1-11.13,1,12.71,12.71,0,0,1-6.64-5.48,12.93,12.93,0,0,1,17.7-17.78,12.61,12.61,0,0,1,5.93,8,13,13,0,0,1-1.43,9.82c1.4,1,1.52,1.28,1.09,2.58,2.79,2.8,5.55,5.55,8.3,8.32a2.06,2.06,0,1,1-2.87,3c-1.8-1.78-3.6-3.58-5.39-5.38ZM64.39,74.86a9.88,9.88,0,1,0,10-9.88A9.87,9.87,0,0,0,64.39,74.86Z"/></g></g></svg>